<svg xmlns="http://www.w3.org/2000/svg" width="1226.667" height="1002.667" version="1.0" viewBox="0 0 920 752"><path d="M440 2.1C395.8 7 355.5 25.5 324.1 55.5c-28.8 27.4-48.5 62.5-56.5 100.3-12.8 60.6 2.6 120.8 42.8 167.9 4.8 5.7 12.8 13.9 17.9 18.4 9.3 8.2 10.8 9.9 8.7 9.9-2.3 0-29.2 12.9-40.8 19.6-25.6 14.7-46.7 30.9-67.8 51.9-16 15.9-24.6 26-36.4 42.5-32.1 44.9-52 96.7-58.6 153-2.2 18.8-2.7 102.9-.6 109.7 1.8 6.1 7.1 13.2 12.6 17 10 6.8-16.3 6.3 317.1 6.1l302-.3 5.6-2.8c6.6-3.2 13.2-9.9 16.2-16.5 2.2-4.6 2.2-5.6 2.2-54.2 0-42.2-.3-51.5-1.8-63-10-74.3-42.1-139.5-93.9-190.7-20.7-20.5-39.8-35.5-62.8-49.3-10.7-6.4-33-17.7-42.9-21.8l-5.5-2.3 4-3.1c19.9-16.2 39.1-40.2 50.8-63.7 14-28 20.5-55.4 20.6-86.8 0-29.9-5.2-54.4-17.4-81.3-18.7-41.2-52.1-75.3-93.1-95-18.9-9.1-34.4-14-55.5-17.5-11.6-1.9-39.5-2.7-51-1.4zm41.9 54.5C511 60.8 539.4 75.3 561 97c20.5 20.4 32.7 43 39.1 72.1 3.1 13.9 3.3 39.8.5 53.4-2.1 9.9-7.2 25.5-11.7 35.4-8.5 18.8-30.1 43.5-48.8 55.9-18.3 12.2-39.7 20.4-60.8 23.2-12.6 1.7-38.1.8-49.4-1.9-57.9-13.4-100.4-57.7-110.5-115.4-2.2-12.2-2.1-34.3 0-46.6 8.4-46.8 39.5-86.8 82.2-105.5 26.2-11.5 52.5-15.1 80.3-11zm12.1 332c43.8 5.2 85.5 20.6 121.8 45.1 54.9 36.9 95.8 92.9 113.2 154.8 7.4 26.4 9.8 45.1 10.7 82.2l.6 27.3H180.8l.5-30.8c.3-20.6 1-34.1 2.1-41 8.1-52.6 27-95.9 60-137.2 8.1-10.1 30.1-32 40.6-40.4 59.8-47.7 134.2-68.9 210-60z"/><path d="M250.4 67.1c-52 3.7-99.5 32.7-128.2 78.4-8.1 13-16.7 34.8-20.4 51.8-1.9 8.8-2.2 13.3-2.2 32.2 0 19.1.3 23.4 2.2 32.2 5.6 25.5 16.8 49.1 33.3 69.9 3.3 4.1 5.9 7.7 5.7 7.8-.2.1-4.6 2.6-9.8 5.6C68.9 379.8 22.1 442.9 6.6 513 1 538.3.6 544.3.5 588.5c0 40 .1 41.1 2.2 45.7 3 6.6 10.4 14.1 16.6 16.9 5.1 2.3 6 2.4 38.8 2.7l33.6.3.6-13.8c.3-7.6 1.5-19 2.7-25.3 1.1-6.3 2.3-13.2 2.6-15.3l.7-3.7H56.8l.5-25.2c.4-22.1.8-26.8 3.1-37.3 6.9-32.6 19.9-60.6 39.2-84.7 26.3-32.7 60.8-55.1 103.4-66.9 14-3.8 17.2-5.4 22.9-11 6.5-6.5 9.1-12.8 9.1-21.9-.1-14.1-6.8-22.9-24.1-31.5-32.1-16.2-51.5-44.2-54.9-79.5-2-21.5 3.8-41 17.8-59.6 13.2-17.5 34.7-33.2 55.4-40.5 3.5-1.2 3.9-1.8 6.9-10.2 4.3-11.9 11.6-26 19.7-38.1 10.8-15.9 14.5-21.7 14.1-22-1.2-1-9.8-1.2-19.5-.5zM652.8 66.7c-1.6.2-2.8.7-2.8 1.1 0 .4 2.7 4.5 6 9.2 13.7 19.7 24.4 39.5 29.4 54.6 1.5 4.5 2.1 5.2 5.5 6.2 11.7 3.5 33 16.2 46.2 27.5 8.4 7.1 19.5 21.3 24.4 31.1 6.8 13.7 8.9 23.4 8.2 37.6-.7 14.2-3.3 24.3-9.6 37.5-10 20.9-26.5 37.1-47.8 47-8.9 4.1-15.5 10.1-19 17.4-4 8-4 18.2 0 26.3 3 6.1 8.4 11.6 14.4 14.6 2.1 1.1 8.3 3.2 13.8 4.7 19.3 5.2 38.7 13.5 55.1 23.6 31.4 19.2 60.1 52 74.8 85.4 12.2 27.8 16.1 46.8 17.3 84.2l.6 21.3h-47.6l.6 3.7c.3 2.1 1.5 9.2 2.7 15.8 1.1 6.6 2.4 18 2.7 25.3l.6 13.3 33.6-.3c32-.3 33.8-.4 38.3-2.5 6.6-3 13.3-9.6 16.5-16.2l2.8-5.6V589c0-42.6-.4-47.4-5.1-71-13-65-51.2-122.8-106.5-161.2-5.2-3.6-13.7-8.9-18.9-11.9-5.2-2.9-9.7-5.4-9.8-5.5-.2-.1 1.8-2.9 4.6-6.2 16.4-19.8 28.7-45.2 34.4-71.6 3-13.8 3.3-49.4.5-62.6-11-51.6-43.7-93.8-90-116-20.2-9.8-35.5-13.9-58.3-15.9-12.1-1.1-12.8-1.1-17.6-.4z"/></svg>